%TF.GenerationSoftware,Altium Limited,Altium Designer,23.6.0 (18)*%
G04 Layer_Color=0*
%FSLAX25Y25*%
%MOIN*%
%TF.SameCoordinates,9FC677E3-0757-43A4-AD8A-435CCD31EDD7*%
%TF.FilePolarity,Positive*%
%TF.FileFunction,Other,Top_Component_Center*%
%TF.Part,Single*%
G01*
G75*
%TA.AperFunction,NonConductor*%
%ADD90C,0.00394*%
D90*
X56339Y100000D02*
X63661D01*
X60000Y96339D02*
Y103661D01*
X190681Y91711D02*
X193465Y88927D01*
X190681D02*
X193465Y91711D01*
X220532Y200362D02*
X224468D01*
X222500Y198394D02*
Y202331D01*
X203913Y102145D02*
X207087Y105318D01*
X203913D02*
X207087Y102145D01*
X196079Y146755D02*
X200016D01*
X198047Y144786D02*
Y148723D01*
X196079Y135755D02*
X200016D01*
X198047Y133786D02*
Y137723D01*
X217108Y119123D02*
X219892Y116339D01*
X217108D02*
X219892Y119123D01*
X221108Y58753D02*
X223892Y61537D01*
X221108D02*
X223892Y58753D01*
X269608Y145363D02*
X272392Y148147D01*
X269608D02*
X272392Y145363D01*
X270608Y128363D02*
X273392Y131147D01*
X270608D02*
X273392Y128363D01*
X295608Y173147D02*
X298392Y170363D01*
X295608D02*
X298392Y173147D01*
X383032Y100000D02*
X386968D01*
X385000Y98032D02*
Y101969D01*
%TF.MD5,193f3e3a58f68aa91e674917f44132bf*%
M02*
