%TF.GenerationSoftware,Altium Limited,Altium Designer,23.6.0 (18)*%
G04 Layer_Physical_Order=3*
G04 Layer_Color=16440176*
%FSLAX25Y25*%
%MOIN*%
%TF.SameCoordinates,9FC677E3-0757-43A4-AD8A-435CCD31EDD7*%
%TF.FilePolarity,Positive*%
%TF.FileFunction,Copper,L3,Inr,Signal*%
%TF.Part,Single*%
G01*
G75*
%TA.AperFunction,ViaPad*%
%ADD45C,0.23000*%
%TA.AperFunction,ComponentPad*%
G04:AMPARAMS|DCode=46|XSize=43.31mil|YSize=82.68mil|CornerRadius=21.65mil|HoleSize=0mil|Usage=FLASHONLY|Rotation=180.000|XOffset=0mil|YOffset=0mil|HoleType=Round|Shape=RoundedRectangle|*
%AMROUNDEDRECTD46*
21,1,0.04331,0.03937,0,0,180.0*
21,1,0.00000,0.08268,0,0,180.0*
1,1,0.04331,0.00000,0.01968*
1,1,0.04331,0.00000,0.01968*
1,1,0.04331,0.00000,-0.01968*
1,1,0.04331,0.00000,-0.01968*
%
%ADD46ROUNDEDRECTD46*%
%ADD47C,0.07480*%
%ADD48C,0.03937*%
%ADD49R,0.03937X0.03937*%
%ADD50P,0.07739X4X360.0*%
%ADD51C,0.05472*%
%ADD52C,0.05906*%
%ADD53R,0.05906X0.05906*%
%ADD54R,0.06102X0.06102*%
%ADD55C,0.06102*%
%ADD56C,0.09055*%
%TA.AperFunction,ViaPad*%
%ADD57C,0.01968*%
G36*
X330000Y147755D02*
X430000D01*
X445000Y132755D01*
Y42755D01*
X402245Y0D01*
X222500D01*
Y5D01*
X42755D01*
X0Y42759D01*
Y132759D01*
X15000Y147759D01*
X115000D01*
X184948Y217707D01*
X184950Y217705D01*
X184950Y217705D01*
X187700Y220455D01*
X257300Y220455D01*
X330000Y147755D01*
D02*
G37*
%LPC*%
G36*
X251634Y210065D02*
X250396Y209902D01*
X249243Y209424D01*
X248253Y208664D01*
X247493Y207674D01*
X247016Y206521D01*
X246853Y205284D01*
X247016Y204046D01*
X247493Y202893D01*
X248253Y201903D01*
X249243Y201143D01*
X250396Y200665D01*
X251634Y200502D01*
X252871Y200665D01*
X254024Y201143D01*
X255015Y201903D01*
X255774Y202893D01*
X256252Y204046D01*
X256415Y205284D01*
X256252Y206521D01*
X255774Y207674D01*
X255015Y208664D01*
X254024Y209424D01*
X252871Y209902D01*
X251634Y210065D01*
D02*
G37*
G36*
X193366D02*
X192129Y209902D01*
X190976Y209424D01*
X189985Y208664D01*
X189226Y207674D01*
X188748Y206521D01*
X188585Y205284D01*
X188748Y204046D01*
X189226Y202893D01*
X189985Y201903D01*
X190976Y201143D01*
X192129Y200665D01*
X193366Y200502D01*
X194604Y200665D01*
X195757Y201143D01*
X196747Y201903D01*
X197507Y202893D01*
X197984Y204046D01*
X198147Y205284D01*
X197984Y206521D01*
X197507Y207674D01*
X196747Y208664D01*
X195757Y209424D01*
X194604Y209902D01*
X193366Y210065D01*
D02*
G37*
G36*
X221494Y198771D02*
X220720Y198617D01*
X220063Y198179D01*
X219625Y197522D01*
X219471Y196748D01*
X219625Y195974D01*
X220063Y195318D01*
X220720Y194879D01*
X221494Y194725D01*
X222268Y194879D01*
X222924Y195318D01*
X223363Y195974D01*
X223517Y196748D01*
X223363Y197522D01*
X222924Y198179D01*
X222268Y198617D01*
X221494Y198771D01*
D02*
G37*
G36*
X212468Y190174D02*
X211694Y190020D01*
X211037Y189581D01*
X210599Y188925D01*
X210445Y188151D01*
X210599Y187376D01*
X211037Y186720D01*
X211694Y186282D01*
X212468Y186128D01*
X213242Y186282D01*
X213899Y186720D01*
X214337Y187376D01*
X214491Y188151D01*
X214337Y188925D01*
X213899Y189581D01*
X213242Y190020D01*
X212468Y190174D01*
D02*
G37*
G36*
X231358Y190078D02*
X230584Y189924D01*
X229928Y189486D01*
X229489Y188829D01*
X229335Y188055D01*
X229489Y187281D01*
X229928Y186625D01*
X230584Y186186D01*
X231358Y186032D01*
X232133Y186186D01*
X232789Y186625D01*
X233227Y187281D01*
X233381Y188055D01*
X233227Y188829D01*
X232789Y189486D01*
X232133Y189924D01*
X231358Y190078D01*
D02*
G37*
G36*
X223106Y186871D02*
X222332Y186717D01*
X221676Y186278D01*
X221237Y185622D01*
X221083Y184848D01*
X221237Y184073D01*
X221676Y183417D01*
X222332Y182978D01*
X223106Y182825D01*
X223881Y182978D01*
X224537Y183417D01*
X224975Y184073D01*
X225129Y184848D01*
X224975Y185622D01*
X224537Y186278D01*
X223881Y186717D01*
X223106Y186871D01*
D02*
G37*
G36*
X239508Y193082D02*
X238682Y192974D01*
X237912Y192655D01*
X237250Y192147D01*
X236743Y191486D01*
X236424Y190716D01*
X236315Y189890D01*
Y185953D01*
X236424Y185126D01*
X236743Y184356D01*
X237250Y183695D01*
X237912Y183188D01*
X238682Y182869D01*
X239508Y182760D01*
X240334Y182869D01*
X241104Y183188D01*
X241765Y183695D01*
X242273Y184356D01*
X242592Y185126D01*
X242701Y185953D01*
Y189890D01*
X242592Y190716D01*
X242273Y191486D01*
X241765Y192147D01*
X241104Y192655D01*
X240334Y192974D01*
X239508Y193082D01*
D02*
G37*
G36*
X205492D02*
X204666Y192974D01*
X203896Y192655D01*
X203235Y192147D01*
X202727Y191486D01*
X202408Y190716D01*
X202299Y189890D01*
Y185953D01*
X202408Y185126D01*
X202727Y184356D01*
X203235Y183695D01*
X203896Y183188D01*
X204666Y182869D01*
X205492Y182760D01*
X206318Y182869D01*
X207088Y183188D01*
X207750Y183695D01*
X208257Y184356D01*
X208576Y185126D01*
X208685Y185953D01*
Y189890D01*
X208576Y190716D01*
X208257Y191486D01*
X207750Y192147D01*
X207088Y192655D01*
X206318Y192974D01*
X205492Y193082D01*
D02*
G37*
G36*
X218979Y182500D02*
X218204Y182346D01*
X217548Y181908D01*
X217110Y181251D01*
X216956Y180477D01*
X217110Y179703D01*
X217548Y179046D01*
X218204Y178608D01*
X218979Y178454D01*
X219753Y178608D01*
X220409Y179046D01*
X220848Y179703D01*
X221002Y180477D01*
X220848Y181251D01*
X220409Y181908D01*
X219753Y182346D01*
X218979Y182500D01*
D02*
G37*
G36*
X208500Y182278D02*
X207726Y182124D01*
X207069Y181685D01*
X206631Y181029D01*
X206477Y180255D01*
X206631Y179480D01*
X207069Y178824D01*
X207726Y178385D01*
X208500Y178232D01*
X209274Y178385D01*
X209931Y178824D01*
X210369Y179480D01*
X210523Y180255D01*
X210369Y181029D01*
X209931Y181685D01*
X209274Y182124D01*
X208500Y182278D01*
D02*
G37*
G36*
X225000Y180778D02*
X224226Y180624D01*
X223569Y180185D01*
X223131Y179529D01*
X222977Y178755D01*
X223131Y177980D01*
X223569Y177324D01*
X224226Y176885D01*
X225000Y176732D01*
X225774Y176885D01*
X226431Y177324D01*
X226869Y177980D01*
X227023Y178755D01*
X226869Y179529D01*
X226431Y180185D01*
X225774Y180624D01*
X225000Y180778D01*
D02*
G37*
G36*
X244000Y178278D02*
X243226Y178124D01*
X242569Y177685D01*
X242131Y177029D01*
X241977Y176255D01*
X242131Y175480D01*
X242569Y174824D01*
X243226Y174385D01*
X244000Y174232D01*
X244774Y174385D01*
X245431Y174824D01*
X245869Y175480D01*
X246023Y176255D01*
X245869Y177029D01*
X245431Y177685D01*
X244774Y178124D01*
X244000Y178278D01*
D02*
G37*
G36*
X222500Y167775D02*
X221726Y167622D01*
X221069Y167183D01*
X220631Y166526D01*
X220477Y165752D01*
X220631Y164978D01*
X221069Y164322D01*
X221726Y163883D01*
X222500Y163729D01*
X223274Y163883D01*
X223931Y164322D01*
X224369Y164978D01*
X224523Y165752D01*
X224369Y166526D01*
X223931Y167183D01*
X223274Y167622D01*
X222500Y167775D01*
D02*
G37*
G36*
X277459Y183821D02*
X276484Y183693D01*
X275575Y183316D01*
X274794Y182717D01*
X274196Y181937D01*
X273819Y181028D01*
X273691Y180052D01*
X273819Y179077D01*
X274196Y178168D01*
X274794Y177388D01*
X275575Y176789D01*
X276484Y176412D01*
X277459Y176284D01*
X278434Y176412D01*
X279343Y176789D01*
X279616Y176998D01*
X279972Y176641D01*
X279763Y176369D01*
X279387Y175460D01*
X279258Y174485D01*
X279387Y173509D01*
X279763Y172600D01*
X280362Y171820D01*
X281143Y171221D01*
X282051Y170845D01*
X283027Y170716D01*
X284002Y170845D01*
X284911Y171221D01*
X285183Y171430D01*
X285540Y171073D01*
X285331Y170801D01*
X284955Y169892D01*
X284826Y168917D01*
X284955Y167942D01*
X285331Y167033D01*
X285930Y166252D01*
X286710Y165653D01*
X287619Y165277D01*
X288595Y165149D01*
X289570Y165277D01*
X290479Y165653D01*
X290751Y165862D01*
X291108Y165506D01*
X290899Y165234D01*
X290522Y164325D01*
X290394Y163349D01*
X290522Y162374D01*
X290899Y161465D01*
X291498Y160685D01*
X292278Y160086D01*
X293187Y159709D01*
X294162Y159581D01*
X295138Y159709D01*
X296047Y160086D01*
X296827Y160685D01*
X297426Y161465D01*
X297802Y162374D01*
X297931Y163349D01*
X297802Y164325D01*
X297426Y165234D01*
X296827Y166014D01*
X296047Y166613D01*
X295138Y166989D01*
X294162Y167118D01*
X293187Y166989D01*
X292278Y166613D01*
X292006Y166404D01*
X291649Y166760D01*
X291858Y167033D01*
X292235Y167942D01*
X292363Y168917D01*
X292235Y169892D01*
X291858Y170801D01*
X291259Y171582D01*
X290479Y172181D01*
X289570Y172557D01*
X288595Y172686D01*
X287619Y172557D01*
X286710Y172181D01*
X286438Y171972D01*
X286082Y172328D01*
X286290Y172600D01*
X286667Y173509D01*
X286795Y174485D01*
X286667Y175460D01*
X286290Y176369D01*
X285692Y177149D01*
X284911Y177748D01*
X284002Y178125D01*
X283027Y178253D01*
X282051Y178125D01*
X281143Y177748D01*
X280870Y177539D01*
X280514Y177896D01*
X280723Y178168D01*
X281099Y179077D01*
X281227Y180052D01*
X281099Y181028D01*
X280723Y181937D01*
X280124Y182717D01*
X279343Y183316D01*
X278434Y183693D01*
X277459Y183821D01*
D02*
G37*
G36*
X251790Y157333D02*
X251016Y157179D01*
X250359Y156741D01*
X249921Y156084D01*
X249767Y155310D01*
X249921Y154536D01*
X250359Y153880D01*
X251016Y153441D01*
X251790Y153287D01*
X252564Y153441D01*
X253220Y153880D01*
X253659Y154536D01*
X253813Y155310D01*
X253659Y156084D01*
X253220Y156741D01*
X252564Y157179D01*
X251790Y157333D01*
D02*
G37*
G36*
X266000Y154778D02*
X265226Y154624D01*
X264569Y154185D01*
X264131Y153529D01*
X263977Y152755D01*
X264131Y151980D01*
X264569Y151324D01*
X265226Y150885D01*
X266000Y150732D01*
X266774Y150885D01*
X267431Y151324D01*
X267869Y151980D01*
X268023Y152755D01*
X267869Y153529D01*
X267431Y154185D01*
X266774Y154624D01*
X266000Y154778D01*
D02*
G37*
G36*
X305298Y157498D02*
X300014Y152214D01*
X305298Y146930D01*
X310582Y152214D01*
X305298Y157498D01*
D02*
G37*
G36*
X279000Y149778D02*
X278226Y149624D01*
X277569Y149185D01*
X277131Y148529D01*
X276977Y147755D01*
X277131Y146980D01*
X277569Y146324D01*
X278226Y145886D01*
X279000Y145731D01*
X279774Y145886D01*
X280431Y146324D01*
X280869Y146980D01*
X281023Y147755D01*
X280869Y148529D01*
X280431Y149185D01*
X279774Y149624D01*
X279000Y149778D01*
D02*
G37*
G36*
X229500Y148778D02*
X228726Y148624D01*
X228069Y148185D01*
X227631Y147529D01*
X227477Y146755D01*
X227631Y145980D01*
X228069Y145324D01*
X228726Y144886D01*
X229500Y144731D01*
X230274Y144886D01*
X230931Y145324D01*
X231369Y145980D01*
X231523Y146755D01*
X231369Y147529D01*
X230931Y148185D01*
X230274Y148624D01*
X229500Y148778D01*
D02*
G37*
G36*
X230997Y143859D02*
X230223Y143705D01*
X229566Y143266D01*
X229128Y142610D01*
X228974Y141836D01*
X229128Y141062D01*
X229566Y140405D01*
X230223Y139967D01*
X230997Y139813D01*
X231771Y139967D01*
X232427Y140405D01*
X232866Y141062D01*
X233020Y141836D01*
X232866Y142610D01*
X232427Y143266D01*
X231771Y143705D01*
X230997Y143859D01*
D02*
G37*
G36*
X282000Y143778D02*
X281226Y143624D01*
X280569Y143185D01*
X280131Y142529D01*
X279977Y141755D01*
X280131Y140980D01*
X280569Y140324D01*
X281226Y139885D01*
X282000Y139732D01*
X282774Y139885D01*
X283431Y140324D01*
X283869Y140980D01*
X284023Y141755D01*
X283869Y142529D01*
X283431Y143185D01*
X282774Y143624D01*
X282000Y143778D01*
D02*
G37*
G36*
X266000Y142778D02*
X265226Y142624D01*
X264569Y142185D01*
X264131Y141529D01*
X263977Y140755D01*
X264131Y139980D01*
X264569Y139324D01*
X265226Y138885D01*
X266000Y138732D01*
X266774Y138885D01*
X267431Y139324D01*
X267869Y139980D01*
X268023Y140755D01*
X267869Y141529D01*
X267431Y142185D01*
X266774Y142624D01*
X266000Y142778D01*
D02*
G37*
G36*
X216500Y142278D02*
X215726Y142124D01*
X215069Y141685D01*
X214631Y141029D01*
X214477Y140255D01*
X214631Y139480D01*
X215069Y138824D01*
X215726Y138385D01*
X216500Y138232D01*
X217274Y138385D01*
X217931Y138824D01*
X218369Y139480D01*
X218523Y140255D01*
X218369Y141029D01*
X217931Y141685D01*
X217274Y142124D01*
X216500Y142278D01*
D02*
G37*
G36*
X208000D02*
X207226Y142124D01*
X206569Y141685D01*
X206131Y141029D01*
X205977Y140255D01*
X206131Y139480D01*
X206569Y138824D01*
X207226Y138385D01*
X208000Y138232D01*
X208774Y138385D01*
X209431Y138824D01*
X209869Y139480D01*
X210023Y140255D01*
X209869Y141029D01*
X209431Y141685D01*
X208774Y142124D01*
X208000Y142278D01*
D02*
G37*
G36*
X150000Y162539D02*
X148038Y162384D01*
X146125Y161925D01*
X144308Y161172D01*
X142630Y160144D01*
X141134Y158866D01*
X139856Y157370D01*
X138828Y155692D01*
X138075Y153875D01*
X137616Y151962D01*
X137461Y150000D01*
X137616Y148038D01*
X138075Y146125D01*
X138828Y144308D01*
X139856Y142630D01*
X141134Y141134D01*
X142630Y139856D01*
X144308Y138828D01*
X146125Y138075D01*
X148038Y137616D01*
X150000Y137461D01*
X151962Y137616D01*
X153875Y138075D01*
X155692Y138828D01*
X157370Y139856D01*
X158866Y141134D01*
X160144Y142630D01*
X161172Y144308D01*
X161925Y146125D01*
X162384Y148038D01*
X162539Y150000D01*
X162384Y151962D01*
X161925Y153875D01*
X161172Y155692D01*
X160144Y157370D01*
X158866Y158866D01*
X157370Y160144D01*
X155692Y161172D01*
X153875Y161925D01*
X151962Y162384D01*
X150000Y162539D01*
D02*
G37*
G36*
X394843Y142472D02*
X393785Y142333D01*
X392799Y141925D01*
X391953Y141275D01*
X391304Y140429D01*
X390896Y139443D01*
X390756Y138386D01*
X390896Y137328D01*
X391304Y136343D01*
X391953Y135496D01*
X392799Y134847D01*
X393785Y134439D01*
X394843Y134300D01*
X395900Y134439D01*
X396886Y134847D01*
X397732Y135496D01*
X398381Y136343D01*
X398789Y137328D01*
X398929Y138386D01*
X398789Y139443D01*
X398381Y140429D01*
X397732Y141275D01*
X396886Y141925D01*
X395900Y142333D01*
X394843Y142472D01*
D02*
G37*
G36*
X385000D02*
X383942Y142333D01*
X382957Y141925D01*
X382111Y141275D01*
X381461Y140429D01*
X381053Y139443D01*
X380914Y138386D01*
X381053Y137328D01*
X381461Y136343D01*
X382111Y135496D01*
X382957Y134847D01*
X383942Y134439D01*
X385000Y134300D01*
X386058Y134439D01*
X387043Y134847D01*
X387889Y135496D01*
X388539Y136343D01*
X388947Y137328D01*
X389086Y138386D01*
X388947Y139443D01*
X388539Y140429D01*
X387889Y141275D01*
X387043Y141925D01*
X386058Y142333D01*
X385000Y142472D01*
D02*
G37*
G36*
X375157D02*
X374100Y142333D01*
X373114Y141925D01*
X372268Y141275D01*
X371619Y140429D01*
X371211Y139443D01*
X371071Y138386D01*
X371211Y137328D01*
X371619Y136343D01*
X372268Y135496D01*
X373114Y134847D01*
X374100Y134439D01*
X375157Y134300D01*
X376215Y134439D01*
X377201Y134847D01*
X378047Y135496D01*
X378696Y136343D01*
X379104Y137328D01*
X379244Y138386D01*
X379104Y139443D01*
X378696Y140429D01*
X378047Y141275D01*
X377201Y141925D01*
X376215Y142333D01*
X375157Y142472D01*
D02*
G37*
G36*
X288000Y137778D02*
X287226Y137624D01*
X286569Y137185D01*
X286131Y136529D01*
X285977Y135755D01*
X286131Y134980D01*
X286569Y134324D01*
X287226Y133886D01*
X288000Y133731D01*
X288774Y133886D01*
X289431Y134324D01*
X289869Y134980D01*
X290023Y135755D01*
X289869Y136529D01*
X289431Y137185D01*
X288774Y137624D01*
X288000Y137778D01*
D02*
G37*
G36*
X267018Y136796D02*
X266244Y136642D01*
X265587Y136203D01*
X265149Y135547D01*
X264995Y134772D01*
X265149Y133998D01*
X265587Y133342D01*
X266244Y132903D01*
X267018Y132749D01*
X267792Y132903D01*
X268448Y133342D01*
X268887Y133998D01*
X269041Y134772D01*
X268887Y135547D01*
X268448Y136203D01*
X267792Y136642D01*
X267018Y136796D01*
D02*
G37*
G36*
X231000Y133778D02*
X230226Y133624D01*
X229569Y133185D01*
X229131Y132529D01*
X228977Y131755D01*
X229131Y130980D01*
X229569Y130324D01*
X230226Y129885D01*
X231000Y129732D01*
X231774Y129885D01*
X232431Y130324D01*
X232869Y130980D01*
X233023Y131755D01*
X232869Y132529D01*
X232431Y133185D01*
X231774Y133624D01*
X231000Y133778D01*
D02*
G37*
G36*
X226500Y132278D02*
X225726Y132124D01*
X225069Y131685D01*
X224631Y131029D01*
X224477Y130255D01*
X224631Y129480D01*
X225069Y128824D01*
X225726Y128385D01*
X226500Y128232D01*
X227274Y128385D01*
X227931Y128824D01*
X228369Y129480D01*
X228523Y130255D01*
X228369Y131029D01*
X227931Y131685D01*
X227274Y132124D01*
X226500Y132278D01*
D02*
G37*
G36*
X269000Y125778D02*
X268226Y125624D01*
X267569Y125185D01*
X267131Y124529D01*
X266977Y123755D01*
X267131Y122980D01*
X267569Y122324D01*
X268226Y121886D01*
X269000Y121731D01*
X269774Y121886D01*
X270431Y122324D01*
X270869Y122980D01*
X271023Y123755D01*
X270869Y124529D01*
X270431Y125185D01*
X269774Y125624D01*
X269000Y125778D01*
D02*
G37*
G36*
X264000D02*
X263226Y125624D01*
X262569Y125185D01*
X262131Y124529D01*
X261977Y123755D01*
X262131Y122980D01*
X262569Y122324D01*
X263226Y121886D01*
X264000Y121731D01*
X264774Y121886D01*
X265431Y122324D01*
X265869Y122980D01*
X266023Y123755D01*
X265869Y124529D01*
X265431Y125185D01*
X264774Y125624D01*
X264000Y125778D01*
D02*
G37*
G36*
X415512Y131756D02*
X414069Y131566D01*
X412724Y131009D01*
X411569Y130123D01*
X410683Y128969D01*
X410126Y127624D01*
X409937Y126181D01*
X410126Y124738D01*
X410683Y123393D01*
X411569Y122239D01*
X412724Y121353D01*
X414069Y120796D01*
X415512Y120606D01*
X416955Y120796D01*
X418299Y121353D01*
X419454Y122239D01*
X420340Y123393D01*
X420897Y124738D01*
X421087Y126181D01*
X420897Y127624D01*
X420340Y128969D01*
X419454Y130123D01*
X418299Y131009D01*
X416955Y131566D01*
X415512Y131756D01*
D02*
G37*
G36*
X354488D02*
X353045Y131566D01*
X351701Y131009D01*
X350546Y130123D01*
X349660Y128969D01*
X349103Y127624D01*
X348913Y126181D01*
X349103Y124738D01*
X349660Y123393D01*
X350546Y122239D01*
X351701Y121353D01*
X353045Y120796D01*
X354488Y120606D01*
X355931Y120796D01*
X357276Y121353D01*
X358431Y122239D01*
X359316Y123393D01*
X359874Y124738D01*
X360064Y126181D01*
X359874Y127624D01*
X359316Y128969D01*
X358431Y130123D01*
X357276Y131009D01*
X355931Y131566D01*
X354488Y131756D01*
D02*
G37*
G36*
X69958Y119820D02*
X69184Y119666D01*
X68528Y119227D01*
X68089Y118571D01*
X67935Y117797D01*
X68089Y117022D01*
X68528Y116366D01*
X69184Y115927D01*
X69958Y115773D01*
X70732Y115927D01*
X71389Y116366D01*
X71827Y117022D01*
X71981Y117797D01*
X71827Y118571D01*
X71389Y119227D01*
X70732Y119666D01*
X69958Y119820D01*
D02*
G37*
G36*
X248000Y117778D02*
X247226Y117624D01*
X246569Y117185D01*
X246131Y116529D01*
X245977Y115755D01*
X246131Y114980D01*
X246569Y114324D01*
X247226Y113885D01*
X248000Y113732D01*
X248774Y113885D01*
X249431Y114324D01*
X249869Y114980D01*
X250023Y115755D01*
X249869Y116529D01*
X249431Y117185D01*
X248774Y117624D01*
X248000Y117778D01*
D02*
G37*
G36*
X224500Y115778D02*
X223726Y115624D01*
X223069Y115185D01*
X222631Y114529D01*
X222477Y113755D01*
X222631Y112980D01*
X223069Y112324D01*
X223726Y111885D01*
X224500Y111732D01*
X225274Y111885D01*
X225931Y112324D01*
X226369Y112980D01*
X226523Y113755D01*
X226369Y114529D01*
X225931Y115185D01*
X225274Y115624D01*
X224500Y115778D01*
D02*
G37*
G36*
X402716Y123864D02*
X401517Y123746D01*
X400364Y123396D01*
X399301Y122828D01*
X398370Y122064D01*
X397605Y121132D01*
X397037Y120069D01*
X396687Y118916D01*
X396569Y117717D01*
X396687Y116517D01*
X397037Y115364D01*
X397605Y114301D01*
X398370Y113370D01*
X399301Y112605D01*
X400364Y112037D01*
X401517Y111687D01*
X402716Y111569D01*
X403916Y111687D01*
X405069Y112037D01*
X406132Y112605D01*
X407064Y113370D01*
X407828Y114301D01*
X408396Y115364D01*
X408746Y116517D01*
X408864Y117717D01*
X408746Y118916D01*
X408396Y120069D01*
X407828Y121132D01*
X407064Y122064D01*
X406132Y122828D01*
X405069Y123396D01*
X403916Y123746D01*
X402716Y123864D01*
D02*
G37*
G36*
X367284D02*
X366084Y123746D01*
X364931Y123396D01*
X363868Y122828D01*
X362936Y122064D01*
X362172Y121132D01*
X361604Y120069D01*
X361254Y118916D01*
X361136Y117717D01*
X361254Y116517D01*
X361604Y115364D01*
X362172Y114301D01*
X362936Y113370D01*
X363868Y112605D01*
X364931Y112037D01*
X366084Y111687D01*
X367284Y111569D01*
X368483Y111687D01*
X369636Y112037D01*
X370699Y112605D01*
X371631Y113370D01*
X372395Y114301D01*
X372963Y115364D01*
X373313Y116517D01*
X373431Y117717D01*
X373313Y118916D01*
X372963Y120069D01*
X372395Y121132D01*
X371631Y122064D01*
X370699Y122828D01*
X369636Y123396D01*
X368483Y123746D01*
X367284Y123864D01*
D02*
G37*
G36*
X257000Y114778D02*
X256226Y114624D01*
X255569Y114185D01*
X255131Y113529D01*
X254977Y112755D01*
X255131Y111980D01*
X255569Y111324D01*
X256226Y110886D01*
X257000Y110731D01*
X257774Y110886D01*
X258431Y111324D01*
X258869Y111980D01*
X259023Y112755D01*
X258869Y113529D01*
X258431Y114185D01*
X257774Y114624D01*
X257000Y114778D01*
D02*
G37*
G36*
X139958Y109820D02*
X139184Y109666D01*
X138528Y109227D01*
X138089Y108571D01*
X137935Y107797D01*
X138089Y107022D01*
X138528Y106366D01*
X139184Y105927D01*
X139958Y105773D01*
X140732Y105927D01*
X141389Y106366D01*
X141827Y107022D01*
X141981Y107797D01*
X141827Y108571D01*
X141389Y109227D01*
X140732Y109666D01*
X139958Y109820D01*
D02*
G37*
G36*
X423386Y113929D02*
X422328Y113789D01*
X421343Y113381D01*
X420497Y112732D01*
X419847Y111886D01*
X419439Y110900D01*
X419300Y109843D01*
X419439Y108785D01*
X419847Y107799D01*
X420497Y106953D01*
X421343Y106304D01*
X422328Y105896D01*
X423386Y105756D01*
X424443Y105896D01*
X425429Y106304D01*
X426275Y106953D01*
X426925Y107799D01*
X427333Y108785D01*
X427472Y109843D01*
X427333Y110900D01*
X426925Y111886D01*
X426275Y112732D01*
X425429Y113381D01*
X424443Y113789D01*
X423386Y113929D01*
D02*
G37*
G36*
X231000Y106778D02*
X230226Y106624D01*
X229569Y106185D01*
X229131Y105529D01*
X228977Y104755D01*
X229131Y103980D01*
X229569Y103324D01*
X230226Y102885D01*
X231000Y102732D01*
X231774Y102885D01*
X232431Y103324D01*
X232869Y103980D01*
X233023Y104755D01*
X232869Y105529D01*
X232431Y106185D01*
X231774Y106624D01*
X231000Y106778D01*
D02*
G37*
G36*
X218000D02*
X217226Y106624D01*
X216569Y106185D01*
X216131Y105529D01*
X215977Y104755D01*
X216131Y103980D01*
X216569Y103324D01*
X217226Y102885D01*
X218000Y102732D01*
X218774Y102885D01*
X219431Y103324D01*
X219869Y103980D01*
X220023Y104755D01*
X219869Y105529D01*
X219431Y106185D01*
X218774Y106624D01*
X218000Y106778D01*
D02*
G37*
G36*
X190500Y100778D02*
X189726Y100624D01*
X189069Y100185D01*
X188631Y99529D01*
X188477Y98755D01*
X188631Y97980D01*
X189069Y97324D01*
X189726Y96886D01*
X190500Y96732D01*
X191274Y96886D01*
X191931Y97324D01*
X192369Y97980D01*
X192523Y98755D01*
X192369Y99529D01*
X191931Y100185D01*
X191274Y100624D01*
X190500Y100778D01*
D02*
G37*
G36*
X423386Y104086D02*
X422328Y103947D01*
X421343Y103539D01*
X420497Y102889D01*
X419847Y102043D01*
X419439Y101058D01*
X419300Y100000D01*
X419439Y98942D01*
X419847Y97957D01*
X420497Y97111D01*
X421343Y96461D01*
X422328Y96053D01*
X423386Y95914D01*
X424443Y96053D01*
X425429Y96461D01*
X426275Y97111D01*
X426925Y97957D01*
X427333Y98942D01*
X427472Y100000D01*
X427333Y101058D01*
X426925Y102043D01*
X426275Y102889D01*
X425429Y103539D01*
X424443Y103947D01*
X423386Y104086D01*
D02*
G37*
G36*
X148177Y99820D02*
X147403Y99666D01*
X146747Y99227D01*
X146308Y98571D01*
X146154Y97796D01*
X146308Y97022D01*
X146747Y96366D01*
X147403Y95927D01*
X148177Y95773D01*
X148951Y95927D01*
X149608Y96366D01*
X150046Y97022D01*
X150200Y97796D01*
X150046Y98571D01*
X149608Y99227D01*
X148951Y99666D01*
X148177Y99820D01*
D02*
G37*
G36*
X134560D02*
X133785Y99666D01*
X133129Y99227D01*
X132691Y98571D01*
X132537Y97796D01*
X132691Y97022D01*
X133129Y96366D01*
X133785Y95927D01*
X134560Y95773D01*
X135334Y95927D01*
X135990Y96366D01*
X136429Y97022D01*
X136583Y97796D01*
X136429Y98571D01*
X135990Y99227D01*
X135334Y99666D01*
X134560Y99820D01*
D02*
G37*
G36*
X252014Y98746D02*
X251240Y98592D01*
X250584Y98154D01*
X250145Y97497D01*
X249991Y96723D01*
X250145Y95949D01*
X250584Y95293D01*
X251240Y94854D01*
X252014Y94700D01*
X252788Y94854D01*
X253445Y95293D01*
X253883Y95949D01*
X254037Y96723D01*
X253883Y97497D01*
X253445Y98154D01*
X252788Y98592D01*
X252014Y98746D01*
D02*
G37*
G36*
X232500Y98278D02*
X231726Y98124D01*
X231069Y97685D01*
X230631Y97029D01*
X230477Y96255D01*
X230631Y95480D01*
X231069Y94824D01*
X231726Y94385D01*
X232500Y94231D01*
X233274Y94385D01*
X233931Y94824D01*
X234369Y95480D01*
X234523Y96255D01*
X234369Y97029D01*
X233931Y97685D01*
X233274Y98124D01*
X232500Y98278D01*
D02*
G37*
G36*
X222500Y93317D02*
X221726Y93163D01*
X221069Y92724D01*
X220631Y92068D01*
X220477Y91294D01*
X220631Y90519D01*
X220749Y90343D01*
X220388Y89983D01*
X220212Y90100D01*
X219438Y90254D01*
X218664Y90100D01*
X218007Y89662D01*
X217569Y89006D01*
X217415Y88231D01*
X217569Y87457D01*
X218007Y86801D01*
X218664Y86362D01*
X219438Y86208D01*
X220212Y86362D01*
X220388Y86480D01*
X220749Y86119D01*
X220631Y85943D01*
X220477Y85169D01*
X220631Y84395D01*
X221069Y83738D01*
X221726Y83300D01*
X222500Y83146D01*
X223274Y83300D01*
X223931Y83738D01*
X224369Y84395D01*
X224523Y85169D01*
X224369Y85943D01*
X224251Y86119D01*
X224612Y86480D01*
X224788Y86362D01*
X225562Y86208D01*
X226337Y86362D01*
X226993Y86801D01*
X227431Y87457D01*
X227585Y88231D01*
X227431Y89006D01*
X226993Y89662D01*
X226337Y90100D01*
X225562Y90254D01*
X224788Y90100D01*
X224612Y89983D01*
X224251Y90343D01*
X224369Y90519D01*
X224523Y91294D01*
X224369Y92068D01*
X223931Y92724D01*
X223274Y93163D01*
X222500Y93317D01*
D02*
G37*
G36*
X235000Y92778D02*
X234226Y92624D01*
X233569Y92185D01*
X233131Y91529D01*
X232977Y90755D01*
X233131Y89980D01*
X233569Y89324D01*
X234226Y88885D01*
X235000Y88731D01*
X235774Y88885D01*
X236431Y89324D01*
X236869Y89980D01*
X237023Y90755D01*
X236869Y91529D01*
X236431Y92185D01*
X235774Y92624D01*
X235000Y92778D01*
D02*
G37*
G36*
X427437Y94209D02*
X419335D01*
Y86106D01*
X427437D01*
Y94209D01*
D02*
G37*
G36*
X139958Y89820D02*
X139184Y89666D01*
X138528Y89227D01*
X138089Y88571D01*
X137935Y87796D01*
X138089Y87022D01*
X138528Y86366D01*
X139184Y85927D01*
X139958Y85773D01*
X140732Y85927D01*
X141389Y86366D01*
X141827Y87022D01*
X141981Y87796D01*
X141827Y88571D01*
X141389Y89227D01*
X140732Y89666D01*
X139958Y89820D01*
D02*
G37*
G36*
X252000Y86778D02*
X251226Y86624D01*
X250569Y86185D01*
X250131Y85529D01*
X249977Y84755D01*
X250131Y83980D01*
X250569Y83324D01*
X251226Y82885D01*
X252000Y82731D01*
X252774Y82885D01*
X253431Y83324D01*
X253869Y83980D01*
X254023Y84755D01*
X253869Y85529D01*
X253431Y86185D01*
X252774Y86624D01*
X252000Y86778D01*
D02*
G37*
G36*
X208000Y90778D02*
X207226Y90624D01*
X206569Y90185D01*
X206131Y89529D01*
X205977Y88755D01*
X206131Y87980D01*
X206569Y87324D01*
X207226Y86885D01*
X208000Y86731D01*
X208575Y86846D01*
X208774Y86885D01*
X208971Y86454D01*
X208831Y86360D01*
X208569Y86185D01*
X208131Y85529D01*
X207977Y84755D01*
X208131Y83980D01*
X208569Y83324D01*
X209226Y82885D01*
X210000Y82731D01*
X210774Y82885D01*
X211431Y83324D01*
X211869Y83980D01*
X212023Y84755D01*
X211869Y85529D01*
X211431Y86185D01*
X210774Y86624D01*
X210000Y86778D01*
X209425Y86663D01*
X209226Y86624D01*
X209029Y87055D01*
X209169Y87149D01*
X209431Y87324D01*
X209869Y87980D01*
X210023Y88755D01*
X209869Y89529D01*
X209431Y90185D01*
X208774Y90624D01*
X208000Y90778D01*
D02*
G37*
G36*
X402716Y88431D02*
X401517Y88313D01*
X400364Y87963D01*
X399301Y87395D01*
X398370Y86631D01*
X397605Y85699D01*
X397037Y84636D01*
X396687Y83483D01*
X396569Y82284D01*
X396687Y81084D01*
X397037Y79931D01*
X397605Y78868D01*
X398370Y77936D01*
X399301Y77172D01*
X400364Y76604D01*
X401517Y76254D01*
X402716Y76136D01*
X403916Y76254D01*
X405069Y76604D01*
X406132Y77172D01*
X407064Y77936D01*
X407828Y78868D01*
X408396Y79931D01*
X408746Y81084D01*
X408864Y82284D01*
X408746Y83483D01*
X408396Y84636D01*
X407828Y85699D01*
X407064Y86631D01*
X406132Y87395D01*
X405069Y87963D01*
X403916Y88313D01*
X402716Y88431D01*
D02*
G37*
G36*
X367284D02*
X366084Y88313D01*
X364931Y87963D01*
X363868Y87395D01*
X362936Y86631D01*
X362172Y85699D01*
X361604Y84636D01*
X361254Y83483D01*
X361136Y82284D01*
X361254Y81084D01*
X361604Y79931D01*
X362172Y78868D01*
X362936Y77936D01*
X363868Y77172D01*
X364931Y76604D01*
X366084Y76254D01*
X367284Y76136D01*
X368483Y76254D01*
X369636Y76604D01*
X370699Y77172D01*
X371631Y77936D01*
X372395Y78868D01*
X372963Y79931D01*
X373313Y81084D01*
X373431Y82284D01*
X373313Y83483D01*
X372963Y84636D01*
X372395Y85699D01*
X371631Y86631D01*
X370699Y87395D01*
X369636Y87963D01*
X368483Y88313D01*
X367284Y88431D01*
D02*
G37*
G36*
X44958Y79820D02*
X44184Y79666D01*
X43528Y79227D01*
X43089Y78571D01*
X42935Y77797D01*
X43089Y77022D01*
X43528Y76366D01*
X44184Y75927D01*
X44958Y75773D01*
X45732Y75927D01*
X46389Y76366D01*
X46827Y77022D01*
X46981Y77797D01*
X46827Y78571D01*
X46389Y79227D01*
X45732Y79666D01*
X44958Y79820D01*
D02*
G37*
G36*
X415512Y79394D02*
X414069Y79204D01*
X412724Y78647D01*
X411569Y77761D01*
X410683Y76607D01*
X410126Y75262D01*
X409937Y73819D01*
X410126Y72376D01*
X410683Y71031D01*
X411569Y69877D01*
X412724Y68991D01*
X414069Y68434D01*
X415512Y68244D01*
X416955Y68434D01*
X418299Y68991D01*
X419454Y69877D01*
X420340Y71031D01*
X420897Y72376D01*
X421087Y73819D01*
X420897Y75262D01*
X420340Y76607D01*
X419454Y77761D01*
X418299Y78647D01*
X416955Y79204D01*
X415512Y79394D01*
D02*
G37*
G36*
X354488D02*
X353045Y79204D01*
X351701Y78647D01*
X350546Y77761D01*
X349660Y76607D01*
X349103Y75262D01*
X348913Y73819D01*
X349103Y72376D01*
X349660Y71031D01*
X350546Y69877D01*
X351701Y68991D01*
X353045Y68434D01*
X354488Y68244D01*
X355931Y68434D01*
X357276Y68991D01*
X358431Y69877D01*
X359316Y71031D01*
X359874Y72376D01*
X360064Y73819D01*
X359874Y75262D01*
X359316Y76607D01*
X358431Y77761D01*
X357276Y78647D01*
X355931Y79204D01*
X354488Y79394D01*
D02*
G37*
G36*
X232500Y71278D02*
X231726Y71124D01*
X231069Y70685D01*
X230631Y70029D01*
X230477Y69255D01*
X230631Y68480D01*
X231069Y67824D01*
X231726Y67386D01*
X232500Y67232D01*
X233274Y67386D01*
X233931Y67824D01*
X234369Y68480D01*
X234523Y69255D01*
X234369Y70029D01*
X233931Y70685D01*
X233274Y71124D01*
X232500Y71278D01*
D02*
G37*
G36*
X218757Y70521D02*
X217982Y70367D01*
X217326Y69928D01*
X216887Y69272D01*
X216734Y68498D01*
X216887Y67724D01*
X217326Y67067D01*
X217982Y66629D01*
X218757Y66475D01*
X219531Y66629D01*
X220187Y67067D01*
X220626Y67724D01*
X220780Y68498D01*
X220626Y69272D01*
X220187Y69928D01*
X219531Y70367D01*
X218757Y70521D01*
D02*
G37*
G36*
X309000Y60778D02*
X308226Y60624D01*
X307569Y60185D01*
X307292Y59770D01*
X306708D01*
X306431Y60185D01*
X305774Y60624D01*
X305000Y60778D01*
X304226Y60624D01*
X303569Y60185D01*
X303131Y59529D01*
X302977Y58755D01*
X303131Y57980D01*
X303569Y57324D01*
X304226Y56885D01*
X305000Y56731D01*
X305774Y56885D01*
X306431Y57324D01*
X306708Y57739D01*
X307292D01*
X307569Y57324D01*
X308226Y56885D01*
X309000Y56731D01*
X309774Y56885D01*
X310431Y57324D01*
X310869Y57980D01*
X311023Y58755D01*
X310869Y59529D01*
X310431Y60185D01*
X309774Y60624D01*
X309000Y60778D01*
D02*
G37*
G36*
X296000Y57278D02*
X295226Y57124D01*
X294569Y56685D01*
X294131Y56029D01*
X293977Y55255D01*
X294131Y54480D01*
X294569Y53824D01*
X295226Y53386D01*
X296000Y53232D01*
X296774Y53386D01*
X297431Y53824D01*
X297869Y54480D01*
X298023Y55255D01*
X297869Y56029D01*
X297431Y56685D01*
X296774Y57124D01*
X296000Y57278D01*
D02*
G37*
G36*
Y52278D02*
X295226Y52124D01*
X294569Y51685D01*
X294131Y51029D01*
X293977Y50255D01*
X294131Y49480D01*
X294569Y48824D01*
X295226Y48386D01*
X296000Y48232D01*
X296774Y48386D01*
X297431Y48824D01*
X297869Y49480D01*
X298023Y50255D01*
X297869Y51029D01*
X297431Y51685D01*
X296774Y52124D01*
X296000Y52278D01*
D02*
G37*
G36*
X209000Y40778D02*
X208226Y40624D01*
X207569Y40185D01*
X207131Y39529D01*
X206977Y38755D01*
X207131Y37980D01*
X207569Y37324D01*
X208226Y36885D01*
X209000Y36731D01*
X209774Y36885D01*
X210431Y37324D01*
X210869Y37980D01*
X211023Y38755D01*
X210869Y39529D01*
X210431Y40185D01*
X209774Y40624D01*
X209000Y40778D01*
D02*
G37*
G36*
X222500Y33543D02*
X221725Y33441D01*
X221003Y33142D01*
X220383Y32666D01*
X220250Y32493D01*
X219750D01*
X219617Y32666D01*
X218997Y33142D01*
X218275Y33441D01*
X217500Y33543D01*
X216725Y33441D01*
X216003Y33142D01*
X215383Y32666D01*
X214907Y32046D01*
X214608Y31324D01*
X214506Y30549D01*
X214608Y29774D01*
X214907Y29052D01*
X215383Y28432D01*
X215556Y28299D01*
Y27799D01*
X215383Y27666D01*
X214907Y27046D01*
X214608Y26324D01*
X214506Y25549D01*
X214608Y24774D01*
X214907Y24052D01*
X215383Y23432D01*
X216003Y22956D01*
X216725Y22657D01*
X217500Y22555D01*
X218275Y22657D01*
X218997Y22956D01*
X219617Y23432D01*
X219750Y23605D01*
X220250D01*
X220383Y23432D01*
X221003Y22956D01*
X221725Y22657D01*
X222500Y22555D01*
X223275Y22657D01*
X223997Y22956D01*
X224617Y23432D01*
X224750Y23605D01*
X225250D01*
X225383Y23432D01*
X226003Y22956D01*
X226725Y22657D01*
X227500Y22555D01*
X228275Y22657D01*
X228997Y22956D01*
X229617Y23432D01*
X230093Y24052D01*
X230392Y24774D01*
X230494Y25549D01*
X230392Y26324D01*
X230093Y27046D01*
X230027Y27132D01*
X230248Y27580D01*
X230469D01*
Y33517D01*
X224532D01*
Y33297D01*
X224083Y33076D01*
X223997Y33142D01*
X223275Y33441D01*
X222500Y33543D01*
D02*
G37*
G36*
X295000Y25741D02*
X293968Y25606D01*
X293007Y25207D01*
X292181Y24574D01*
X291547Y23748D01*
X291149Y22786D01*
X291013Y21755D01*
X291149Y20723D01*
X291547Y19761D01*
X292181Y18936D01*
X293007Y18302D01*
X293968Y17904D01*
X295000Y17768D01*
X296032Y17904D01*
X296993Y18302D01*
X297819Y18936D01*
X298453Y19761D01*
X298851Y20723D01*
X298987Y21755D01*
X298851Y22786D01*
X298453Y23748D01*
X297819Y24574D01*
X296993Y25207D01*
X296032Y25606D01*
X295000Y25741D01*
D02*
G37*
G36*
X350000Y37539D02*
X348039Y37384D01*
X346125Y36925D01*
X344308Y36172D01*
X342630Y35144D01*
X341134Y33866D01*
X339856Y32370D01*
X338828Y30692D01*
X338075Y28875D01*
X337616Y26961D01*
X337461Y25000D01*
X337616Y23039D01*
X338075Y21125D01*
X338828Y19308D01*
X339856Y17630D01*
X341134Y16134D01*
X342630Y14856D01*
X344308Y13828D01*
X346125Y13075D01*
X348039Y12616D01*
X350000Y12461D01*
X351961Y12616D01*
X353875Y13075D01*
X355692Y13828D01*
X357370Y14856D01*
X358866Y16134D01*
X360144Y17630D01*
X361172Y19308D01*
X361925Y21125D01*
X362384Y23039D01*
X362539Y25000D01*
X362384Y26961D01*
X361925Y28875D01*
X361172Y30692D01*
X360144Y32370D01*
X358866Y33866D01*
X357370Y35144D01*
X355692Y36172D01*
X353875Y36925D01*
X351961Y37384D01*
X350000Y37539D01*
D02*
G37*
G36*
X150000D02*
X148038Y37384D01*
X146125Y36925D01*
X144308Y36172D01*
X142630Y35144D01*
X141134Y33866D01*
X139856Y32370D01*
X138828Y30692D01*
X138075Y28875D01*
X137616Y26961D01*
X137461Y25000D01*
X137616Y23039D01*
X138075Y21125D01*
X138828Y19308D01*
X139856Y17630D01*
X141134Y16134D01*
X142630Y14856D01*
X144308Y13828D01*
X146125Y13075D01*
X148038Y12616D01*
X150000Y12461D01*
X151962Y12616D01*
X153875Y13075D01*
X155692Y13828D01*
X157370Y14856D01*
X158866Y16134D01*
X160144Y17630D01*
X161172Y19308D01*
X161925Y21125D01*
X162384Y23039D01*
X162539Y25000D01*
X162384Y26961D01*
X161925Y28875D01*
X161172Y30692D01*
X160144Y32370D01*
X158866Y33866D01*
X157370Y35144D01*
X155692Y36172D01*
X153875Y36925D01*
X151962Y37384D01*
X150000Y37539D01*
D02*
G37*
%LPD*%
D45*
Y150000D02*
D03*
Y25000D02*
D03*
X350000D02*
D03*
D46*
X239508Y187921D02*
D03*
X205492D02*
D03*
D47*
X251634Y205284D02*
D03*
X193366D02*
D03*
D48*
X217500Y25549D02*
D03*
Y30549D02*
D03*
X222500Y25549D02*
D03*
Y30549D02*
D03*
X227500Y25549D02*
D03*
D49*
Y30549D02*
D03*
D50*
X305298Y152214D02*
D03*
D51*
X299730Y157782D02*
D03*
X294162Y163349D02*
D03*
X288595Y168917D02*
D03*
X283027Y174485D02*
D03*
X277459Y180052D02*
D03*
D52*
X295000Y21755D02*
D03*
D53*
X285000D02*
D03*
D54*
X423386Y90158D02*
D03*
D55*
Y100000D02*
D03*
Y109843D02*
D03*
X394843Y138386D02*
D03*
X385000D02*
D03*
X375157D02*
D03*
D56*
X354488Y73819D02*
D03*
Y126181D02*
D03*
X415512Y73819D02*
D03*
Y126181D02*
D03*
D57*
X263977Y166500D02*
D03*
X44958Y97796D02*
D03*
Y77797D02*
D03*
X69958Y117797D02*
D03*
X134560Y97796D02*
D03*
X139958Y107797D02*
D03*
Y87796D02*
D03*
X148177Y97796D02*
D03*
X174136Y114755D02*
D03*
X190500Y98755D02*
D03*
X222500Y85169D02*
D03*
X219438Y88231D02*
D03*
X225562D02*
D03*
X222500Y91294D02*
D03*
X208000Y88755D02*
D03*
Y140255D02*
D03*
X208500Y180255D02*
D03*
X209000Y38755D02*
D03*
X210000Y84755D02*
D03*
X212468Y188151D02*
D03*
X216000Y55755D02*
D03*
X216500Y140255D02*
D03*
X218000Y104755D02*
D03*
X218757Y68498D02*
D03*
X218979Y180477D02*
D03*
X221494Y196748D02*
D03*
X222500Y165752D02*
D03*
X223106Y184848D02*
D03*
X224500Y113755D02*
D03*
X225000Y178755D02*
D03*
X226500Y130255D02*
D03*
X227885Y105870D02*
D03*
X229500Y146755D02*
D03*
X230997Y141836D02*
D03*
X231000Y104755D02*
D03*
Y138255D02*
D03*
Y131755D02*
D03*
X231358Y188055D02*
D03*
X232500Y96255D02*
D03*
Y69255D02*
D03*
X235000Y90755D02*
D03*
X236000Y29255D02*
D03*
X238958Y73796D02*
D03*
X239958Y101796D02*
D03*
X244000Y176255D02*
D03*
X248000Y115755D02*
D03*
X251790Y155310D02*
D03*
X252000Y84755D02*
D03*
X252014Y96723D02*
D03*
X257000Y112755D02*
D03*
X261500Y43255D02*
D03*
Y51255D02*
D03*
Y47255D02*
D03*
X264000Y123755D02*
D03*
X265000Y43255D02*
D03*
X266000Y152755D02*
D03*
Y140755D02*
D03*
X267018Y134772D02*
D03*
X269000Y123755D02*
D03*
X270937Y139346D02*
D03*
X278000Y123755D02*
D03*
X279000Y147755D02*
D03*
X282000Y141755D02*
D03*
X288000Y135755D02*
D03*
X296000Y55255D02*
D03*
Y50255D02*
D03*
X305000Y58755D02*
D03*
X309000D02*
D03*
X434000Y75755D02*
D03*
%TF.MD5,4623fca267e20a43ca4b8e3b8e5041c4*%
M02*
