%TF.GenerationSoftware,Altium Limited,Altium Designer,23.6.0 (18)*%
G04 Layer_Color=32768*
%FSLAX25Y25*%
%MOIN*%
%TF.SameCoordinates,9FC677E3-0757-43A4-AD8A-435CCD31EDD7*%
%TF.FilePolarity,Positive*%
%TF.FileFunction,Other,Top_Courtyard*%
%TF.Part,Single*%
G01*
G75*
%TA.AperFunction,NonConductor*%
%ADD61C,0.00787*%
D61*
X47795Y80905D02*
Y119095D01*
X72205D01*
Y80905D02*
Y119095D01*
X47795Y80905D02*
X72205D01*
X185809Y91850D02*
X193604Y84056D01*
X185809Y91850D02*
X190542Y96583D01*
X198337Y88788D01*
X193604Y84056D02*
X198337Y88788D01*
X187067Y182961D02*
X257933D01*
X187067D02*
Y217488D01*
X257933D01*
Y182961D02*
Y217488D01*
X202438Y90090D02*
X219141Y106794D01*
X191859Y100669D02*
X202438Y90090D01*
X191859Y100669D02*
X208562Y117372D01*
X219141Y106794D01*
X193126Y148920D02*
X202969D01*
Y144589D02*
Y148920D01*
X193126Y144589D02*
X202969D01*
X193126D02*
Y148920D01*
Y137920D02*
X202969D01*
Y133589D02*
Y137920D01*
X193126Y133589D02*
X202969D01*
X193126D02*
Y137920D01*
X216969Y123995D02*
X224764Y116200D01*
X220031Y111468D02*
X224764Y116200D01*
X212236Y119262D02*
X220031Y111468D01*
X212236Y119262D02*
X216969Y123995D01*
X213452Y59170D02*
X223474Y69192D01*
X231548Y61119D01*
X221526Y51097D02*
X231548Y61119D01*
X213452Y59170D02*
X221526Y51097D01*
X262503Y148292D02*
X269463Y155251D01*
X262503Y148292D02*
X272537Y138258D01*
X279497Y145218D01*
X269463Y155251D02*
X279497Y145218D01*
X263503Y131291D02*
X270463Y138251D01*
X263503Y131291D02*
X273537Y121258D01*
X280497Y128218D01*
X270463Y138251D02*
X280497Y128218D01*
X268634Y177352D02*
X302598Y143389D01*
X325962Y166753D01*
X291998Y200716D02*
X325962Y166753D01*
X268634Y177352D02*
X291998Y200716D01*
X346614Y143898D02*
X428898D01*
Y53740D02*
Y143898D01*
X346614Y53740D02*
X428898D01*
X346614D02*
Y143898D01*
%TF.MD5,c837f0ed46c950f9afad9a0cd4110e25*%
M02*
