%TF.GenerationSoftware,Altium Limited,Altium Designer,23.6.0 (18)*%
G04 Layer_Color=8388736*
%FSLAX25Y25*%
%MOIN*%
%TF.SameCoordinates,9FC677E3-0757-43A4-AD8A-435CCD31EDD7*%
%TF.FilePolarity,Positive*%
%TF.FileFunction,Other,Top_3D_Body*%
%TF.Part,Single*%
G01*
G75*
%TA.AperFunction,NonConductor*%
%ADD61C,0.00787*%
D61*
X48189Y88189D02*
Y111811D01*
X71811D01*
Y88189D02*
Y111811D01*
X48189Y88189D02*
X71811D01*
X186992Y91363D02*
X193117Y85239D01*
X186992Y91363D02*
X191029Y95400D01*
X197154Y89275D01*
X193117Y85239D02*
X197154Y89275D01*
X187461Y183630D02*
X257539D01*
X187461D02*
Y217095D01*
X257539D01*
Y183630D02*
Y217095D01*
X202994Y92039D02*
X217192Y106237D01*
X193808Y101226D02*
X202994Y92039D01*
X193808Y101226D02*
X208005Y115424D01*
X217192Y106237D01*
X194701Y148526D02*
X201394D01*
Y144983D02*
Y148526D01*
X194701Y144983D02*
X201394D01*
X194701D02*
Y148526D01*
Y137526D02*
X201394D01*
Y133983D02*
Y137526D01*
X194701Y133983D02*
X201394D01*
X194701D02*
Y137526D01*
X217456Y122812D02*
X223581Y116687D01*
X219544Y112651D02*
X223581Y116687D01*
X213419Y118775D02*
X219544Y112651D01*
X213419Y118775D02*
X217456Y122812D01*
X214009Y59170D02*
X223474Y68635D01*
X230991Y61119D01*
X221526Y51654D02*
X230991Y61119D01*
X214009Y59170D02*
X221526Y51654D01*
X266476Y145711D02*
X272044Y151278D01*
X266476Y145711D02*
X269956Y142231D01*
X275524Y147799D01*
X272044Y151278D02*
X275524Y147799D01*
X267476Y128711D02*
X273044Y134278D01*
X267476Y128711D02*
X270956Y125231D01*
X276524Y130799D01*
X273044Y134278D02*
X276524Y130799D01*
X278211Y186372D02*
X311617Y152965D01*
X316143Y157491D01*
X282736Y190897D02*
X316143Y157491D01*
X278211Y186372D02*
X282736Y190897D01*
X347008Y143504D02*
X428504D01*
Y54134D02*
Y143504D01*
X347008Y54134D02*
X428504D01*
X347008D02*
Y143504D01*
%TF.MD5,5d833a11f08d424dcbf9ebe1913d753b*%
M02*
