%TF.GenerationSoftware,Altium Limited,Altium Designer,23.6.0 (18)*%
G04 Layer_Physical_Order=2*
G04 Layer_Color=36540*
%FSLAX25Y25*%
%MOIN*%
%TF.SameCoordinates,9FC677E3-0757-43A4-AD8A-435CCD31EDD7*%
%TF.FilePolarity,Positive*%
%TF.FileFunction,Copper,L2,Inr,Signal*%
%TF.Part,Single*%
G01*
G75*
%TA.AperFunction,ViaPad*%
%ADD45C,0.23000*%
%TA.AperFunction,ComponentPad*%
G04:AMPARAMS|DCode=46|XSize=43.31mil|YSize=82.68mil|CornerRadius=21.65mil|HoleSize=0mil|Usage=FLASHONLY|Rotation=180.000|XOffset=0mil|YOffset=0mil|HoleType=Round|Shape=RoundedRectangle|*
%AMROUNDEDRECTD46*
21,1,0.04331,0.03937,0,0,180.0*
21,1,0.00000,0.08268,0,0,180.0*
1,1,0.04331,0.00000,0.01968*
1,1,0.04331,0.00000,0.01968*
1,1,0.04331,0.00000,-0.01968*
1,1,0.04331,0.00000,-0.01968*
%
%ADD46ROUNDEDRECTD46*%
%ADD47C,0.07480*%
%ADD48C,0.03937*%
%ADD49R,0.03937X0.03937*%
%ADD50P,0.07739X4X360.0*%
%ADD51C,0.05472*%
%ADD52C,0.05906*%
%ADD53R,0.05906X0.05906*%
%ADD54R,0.06102X0.06102*%
%ADD55C,0.06102*%
%ADD56C,0.09055*%
%TA.AperFunction,ViaPad*%
%ADD57C,0.01968*%
G36*
X330000Y147755D02*
X338990D01*
Y58186D01*
X333426Y52622D01*
X307019D01*
X253714Y104982D01*
X253552Y105088D01*
X253390Y105197D01*
X253386Y105198D01*
X253382Y105200D01*
X253191Y105236D01*
X253000Y105274D01*
X240416D01*
X240286Y105248D01*
X240153Y105240D01*
X240092Y105210D01*
X240026Y105197D01*
X239958Y105151D01*
X239891Y105197D01*
X239824Y105210D01*
X239763Y105240D01*
X239631Y105248D01*
X239500Y105274D01*
X237500D01*
X237110Y105197D01*
X236779Y104976D01*
X231225Y99422D01*
X231132Y99282D01*
X231030Y99148D01*
X231022Y99117D01*
X231004Y99091D01*
X230971Y98926D01*
X230928Y98763D01*
X230933Y98732D01*
X230927Y98701D01*
X230960Y98536D01*
X230982Y98369D01*
X231059Y98145D01*
X231132Y98020D01*
X231153Y97973D01*
X231000Y97755D01*
X230782Y97601D01*
X230734Y97623D01*
X230610Y97695D01*
X230386Y97772D01*
X230219Y97795D01*
X230054Y97828D01*
X230023Y97822D01*
X229992Y97826D01*
X229829Y97783D01*
X229664Y97750D01*
X229637Y97733D01*
X229607Y97725D01*
X229473Y97623D01*
X229333Y97529D01*
X225279Y93476D01*
X225173Y93316D01*
X225064Y93158D01*
X225062Y93151D01*
X225058Y93145D01*
X225021Y92957D01*
X224980Y92769D01*
X224982Y92762D01*
X224980Y92755D01*
X225018Y92567D01*
X225052Y92378D01*
X225057Y92372D01*
X225058Y92364D01*
X225165Y92205D01*
X225269Y92044D01*
X241980Y74841D01*
Y63255D01*
X242058Y62864D01*
X242279Y62534D01*
X258295Y46518D01*
X258626Y46297D01*
X259016Y46219D01*
X259406Y46297D01*
X259678Y46410D01*
X260069Y45824D01*
X260485Y45547D01*
Y44962D01*
X260069Y44685D01*
X259631Y44029D01*
X259477Y43255D01*
X259631Y42480D01*
X260069Y41824D01*
X260726Y41385D01*
X261500Y41232D01*
X262274Y41385D01*
X262931Y41824D01*
X263000Y41928D01*
X263500D01*
X263569Y41824D01*
X264226Y41385D01*
X264296Y41372D01*
X264467Y41091D01*
X264455Y40949D01*
X264427Y40808D01*
X264438Y40752D01*
X264433Y40694D01*
X264476Y40558D01*
X264504Y40418D01*
X264536Y40370D01*
X264554Y40315D01*
X264646Y40206D01*
X264725Y40088D01*
X277108Y27704D01*
X289106Y27748D01*
X289116Y28230D01*
X277879Y28376D01*
X265446Y40808D01*
X265604Y41357D01*
X266124Y41572D01*
X266682Y42131D01*
X266984Y42860D01*
Y43649D01*
X266682Y44379D01*
X266124Y44937D01*
X265395Y45239D01*
X264605D01*
X263876Y44937D01*
X263577Y44637D01*
X263250Y44423D01*
X262923Y44637D01*
X262624Y44937D01*
X262510Y44984D01*
Y45525D01*
X262624Y45573D01*
X263182Y46131D01*
X263484Y46860D01*
Y47649D01*
X263182Y48379D01*
X262624Y48937D01*
X262510Y48984D01*
Y49525D01*
X262624Y49573D01*
X263182Y50131D01*
X263484Y50860D01*
Y51649D01*
X263182Y52379D01*
X262624Y52937D01*
X261895Y53239D01*
X261105D01*
X260376Y52937D01*
X259818Y52379D01*
X259516Y51649D01*
Y50860D01*
X259818Y50131D01*
X260376Y49573D01*
X260490Y49525D01*
Y48984D01*
X260376Y48937D01*
X259818Y48379D01*
X259516Y47649D01*
Y47446D01*
X259016Y47239D01*
X243000Y63255D01*
Y75255D01*
X226000Y92755D01*
X230054Y96808D01*
X230278Y96731D01*
X230516Y96563D01*
Y95860D01*
X230818Y95131D01*
X231376Y94573D01*
X232105Y94270D01*
X232895D01*
X233624Y94573D01*
X234182Y95131D01*
X234484Y95860D01*
Y96649D01*
X234182Y97379D01*
X233624Y97937D01*
X232895Y98239D01*
X232191D01*
X232023Y98477D01*
X231946Y98701D01*
X237500Y104255D01*
X239500D01*
X239563Y103781D01*
X238834Y103479D01*
X238276Y102920D01*
X237974Y102191D01*
Y101402D01*
X238276Y100672D01*
X238834Y100114D01*
X239563Y99812D01*
X240353D01*
X241082Y100114D01*
X241640Y100672D01*
X241942Y101402D01*
Y102191D01*
X241640Y102920D01*
X241082Y103479D01*
X240353Y103781D01*
X240416Y104255D01*
X253000D01*
X306602Y51603D01*
X333848D01*
X340009Y57764D01*
Y147755D01*
X430000D01*
X445000Y132755D01*
X445005Y42759D01*
X399736Y5D01*
X304206D01*
X303590Y20164D01*
X302000Y21755D01*
X302000Y20313D01*
X302584Y19729D01*
X303175Y359D01*
X302827Y0D01*
X222500D01*
Y5D01*
X42755D01*
X0Y42759D01*
Y132759D01*
X15000Y147759D01*
X115000D01*
X184948Y217707D01*
X184950Y217705D01*
X184950Y217705D01*
X187700Y220455D01*
X257300Y220455D01*
X330000Y147755D01*
D02*
G37*
%LPC*%
G36*
X251634Y210065D02*
X250396Y209902D01*
X249243Y209424D01*
X248253Y208664D01*
X247493Y207674D01*
X247016Y206521D01*
X246853Y205284D01*
X247016Y204046D01*
X247493Y202893D01*
X248253Y201903D01*
X249243Y201143D01*
X250396Y200665D01*
X251634Y200502D01*
X252871Y200665D01*
X254024Y201143D01*
X255015Y201903D01*
X255774Y202893D01*
X256252Y204046D01*
X256415Y205284D01*
X256252Y206521D01*
X255774Y207674D01*
X255015Y208664D01*
X254024Y209424D01*
X252871Y209902D01*
X251634Y210065D01*
D02*
G37*
G36*
X193366D02*
X192129Y209902D01*
X190976Y209424D01*
X189985Y208664D01*
X189226Y207674D01*
X188748Y206521D01*
X188585Y205284D01*
X188748Y204046D01*
X189226Y202893D01*
X189985Y201903D01*
X190976Y201143D01*
X192129Y200665D01*
X193366Y200502D01*
X194604Y200665D01*
X195757Y201143D01*
X196747Y201903D01*
X197507Y202893D01*
X197984Y204046D01*
X198147Y205284D01*
X197984Y206521D01*
X197507Y207674D01*
X196747Y208664D01*
X195757Y209424D01*
X194604Y209902D01*
X193366Y210065D01*
D02*
G37*
G36*
X221494Y198771D02*
X220720Y198617D01*
X220063Y198179D01*
X219625Y197522D01*
X219471Y196748D01*
X219625Y195974D01*
X220063Y195318D01*
X220720Y194879D01*
X221494Y194725D01*
X222268Y194879D01*
X222924Y195318D01*
X223363Y195974D01*
X223517Y196748D01*
X223363Y197522D01*
X222924Y198179D01*
X222268Y198617D01*
X221494Y198771D01*
D02*
G37*
G36*
X223106Y186871D02*
X222332Y186717D01*
X221676Y186278D01*
X221237Y185622D01*
X221083Y184848D01*
X221237Y184073D01*
X221676Y183417D01*
X222332Y182978D01*
X223106Y182825D01*
X223881Y182978D01*
X224537Y183417D01*
X224975Y184073D01*
X225129Y184848D01*
X224975Y185622D01*
X224537Y186278D01*
X223881Y186717D01*
X223106Y186871D01*
D02*
G37*
G36*
X239508Y193082D02*
X238682Y192974D01*
X237912Y192655D01*
X237250Y192147D01*
X236743Y191486D01*
X236424Y190716D01*
X236315Y189890D01*
Y185953D01*
X236424Y185126D01*
X236743Y184356D01*
X237250Y183695D01*
X237912Y183188D01*
X238682Y182869D01*
X239508Y182760D01*
X240334Y182869D01*
X241104Y183188D01*
X241765Y183695D01*
X242273Y184356D01*
X242592Y185126D01*
X242701Y185953D01*
Y189890D01*
X242592Y190716D01*
X242273Y191486D01*
X241765Y192147D01*
X241104Y192655D01*
X240334Y192974D01*
X239508Y193082D01*
D02*
G37*
G36*
X205492D02*
X204666Y192974D01*
X203896Y192655D01*
X203235Y192147D01*
X202727Y191486D01*
X202408Y190716D01*
X202299Y189890D01*
Y185953D01*
X202408Y185126D01*
X202727Y184356D01*
X203235Y183695D01*
X203896Y183188D01*
X204666Y182869D01*
X205492Y182760D01*
X206318Y182869D01*
X207088Y183188D01*
X207750Y183695D01*
X208257Y184356D01*
X208576Y185126D01*
X208685Y185953D01*
Y189890D01*
X208576Y190716D01*
X208257Y191486D01*
X207750Y192147D01*
X207088Y192655D01*
X206318Y192974D01*
X205492Y193082D01*
D02*
G37*
G36*
X218979Y182500D02*
X218204Y182346D01*
X217548Y181908D01*
X217110Y181251D01*
X216956Y180477D01*
X217110Y179703D01*
X217548Y179046D01*
X218204Y178608D01*
X218979Y178454D01*
X219753Y178608D01*
X220409Y179046D01*
X220848Y179703D01*
X221002Y180477D01*
X220848Y181251D01*
X220409Y181908D01*
X219753Y182346D01*
X218979Y182500D01*
D02*
G37*
G36*
X225000Y180778D02*
X224226Y180624D01*
X223569Y180185D01*
X223131Y179529D01*
X222977Y178755D01*
X223131Y177980D01*
X223569Y177324D01*
X224226Y176885D01*
X225000Y176732D01*
X225774Y176885D01*
X226431Y177324D01*
X226869Y177980D01*
X227023Y178755D01*
X226869Y179529D01*
X226431Y180185D01*
X225774Y180624D01*
X225000Y180778D01*
D02*
G37*
G36*
X277459Y183821D02*
X276484Y183693D01*
X275575Y183316D01*
X274794Y182717D01*
X274196Y181937D01*
X273819Y181028D01*
X273691Y180052D01*
X273819Y179077D01*
X274196Y178168D01*
X274794Y177388D01*
X275575Y176789D01*
X276484Y176412D01*
X277459Y176284D01*
X278434Y176412D01*
X279343Y176789D01*
X279616Y176998D01*
X279972Y176641D01*
X279763Y176369D01*
X279387Y175460D01*
X279258Y174485D01*
X279387Y173509D01*
X279763Y172600D01*
X280362Y171820D01*
X281143Y171221D01*
X282051Y170845D01*
X283027Y170716D01*
X284002Y170845D01*
X284911Y171221D01*
X285183Y171430D01*
X285540Y171073D01*
X285331Y170801D01*
X284955Y169892D01*
X284826Y168917D01*
X284955Y167942D01*
X285331Y167033D01*
X285930Y166252D01*
X286710Y165653D01*
X287619Y165277D01*
X288595Y165149D01*
X289570Y165277D01*
X290479Y165653D01*
X291259Y166252D01*
X291858Y167033D01*
X292235Y167942D01*
X292363Y168917D01*
X292235Y169892D01*
X291858Y170801D01*
X291259Y171582D01*
X290479Y172181D01*
X289570Y172557D01*
X288595Y172686D01*
X287619Y172557D01*
X286710Y172181D01*
X286438Y171972D01*
X286082Y172328D01*
X286290Y172600D01*
X286667Y173509D01*
X286795Y174485D01*
X286667Y175460D01*
X286290Y176369D01*
X285692Y177149D01*
X284911Y177748D01*
X284002Y178125D01*
X283027Y178253D01*
X282051Y178125D01*
X281143Y177748D01*
X280870Y177539D01*
X280514Y177896D01*
X280723Y178168D01*
X281099Y179077D01*
X281227Y180052D01*
X281099Y181028D01*
X280723Y181937D01*
X280124Y182717D01*
X279343Y183316D01*
X278434Y183693D01*
X277459Y183821D01*
D02*
G37*
G36*
X263977Y168523D02*
X263203Y168369D01*
X262546Y167931D01*
X262108Y167274D01*
X261954Y166500D01*
X262108Y165726D01*
X262546Y165069D01*
X263203Y164631D01*
X263977Y164477D01*
X264751Y164631D01*
X265407Y165069D01*
X265846Y165726D01*
X266000Y166500D01*
X265846Y167274D01*
X265407Y167931D01*
X264751Y168369D01*
X263977Y168523D01*
D02*
G37*
G36*
X299730Y161550D02*
X298755Y161422D01*
X297846Y161045D01*
X297065Y160446D01*
X296467Y159666D01*
X296090Y158757D01*
X295962Y157782D01*
X296090Y156806D01*
X296467Y155897D01*
X297065Y155117D01*
X297846Y154518D01*
X298755Y154141D01*
X299730Y154013D01*
X300706Y154141D01*
X301614Y154518D01*
X302395Y155117D01*
X302994Y155897D01*
X303370Y156806D01*
X303499Y157782D01*
X303370Y158757D01*
X302994Y159666D01*
X302395Y160446D01*
X301614Y161045D01*
X300706Y161422D01*
X299730Y161550D01*
D02*
G37*
G36*
X251790Y157333D02*
X251016Y157179D01*
X250359Y156741D01*
X249921Y156084D01*
X249767Y155310D01*
X249921Y154536D01*
X250359Y153880D01*
X251016Y153441D01*
X251790Y153287D01*
X252564Y153441D01*
X253220Y153880D01*
X253659Y154536D01*
X253813Y155310D01*
X253659Y156084D01*
X253220Y156741D01*
X252564Y157179D01*
X251790Y157333D01*
D02*
G37*
G36*
X279000Y149778D02*
X278226Y149624D01*
X277569Y149185D01*
X277131Y148529D01*
X276977Y147755D01*
X277131Y146980D01*
X277569Y146324D01*
X278226Y145886D01*
X279000Y145731D01*
X279774Y145886D01*
X280431Y146324D01*
X280869Y146980D01*
X281023Y147755D01*
X280869Y148529D01*
X280431Y149185D01*
X279774Y149624D01*
X279000Y149778D01*
D02*
G37*
G36*
X229500Y148778D02*
X228726Y148624D01*
X228069Y148185D01*
X227631Y147529D01*
X227477Y146755D01*
X227631Y145980D01*
X228069Y145324D01*
X228726Y144886D01*
X229500Y144731D01*
X230274Y144886D01*
X230931Y145324D01*
X231369Y145980D01*
X231523Y146755D01*
X231369Y147529D01*
X230931Y148185D01*
X230274Y148624D01*
X229500Y148778D01*
D02*
G37*
G36*
X282000Y143778D02*
X281226Y143624D01*
X280569Y143185D01*
X280131Y142529D01*
X279977Y141755D01*
X280131Y140980D01*
X280569Y140324D01*
X281226Y139885D01*
X282000Y139732D01*
X282774Y139885D01*
X283431Y140324D01*
X283869Y140980D01*
X284023Y141755D01*
X283869Y142529D01*
X283431Y143185D01*
X282774Y143624D01*
X282000Y143778D01*
D02*
G37*
G36*
X266000Y142778D02*
X265226Y142624D01*
X264569Y142185D01*
X264131Y141529D01*
X263977Y140755D01*
X264131Y139980D01*
X264569Y139324D01*
X265226Y138885D01*
X266000Y138732D01*
X266774Y138885D01*
X267431Y139324D01*
X267869Y139980D01*
X268023Y140755D01*
X267869Y141529D01*
X267431Y142185D01*
X266774Y142624D01*
X266000Y142778D01*
D02*
G37*
G36*
X216500Y142278D02*
X215726Y142124D01*
X215069Y141685D01*
X214631Y141029D01*
X214477Y140255D01*
X214631Y139480D01*
X215069Y138824D01*
X215726Y138385D01*
X216500Y138232D01*
X217274Y138385D01*
X217931Y138824D01*
X218369Y139480D01*
X218523Y140255D01*
X218369Y141029D01*
X217931Y141685D01*
X217274Y142124D01*
X216500Y142278D01*
D02*
G37*
G36*
X208000D02*
X207226Y142124D01*
X206569Y141685D01*
X206131Y141029D01*
X205977Y140255D01*
X206131Y139480D01*
X206569Y138824D01*
X207226Y138385D01*
X208000Y138232D01*
X208774Y138385D01*
X209431Y138824D01*
X209869Y139480D01*
X210023Y140255D01*
X209869Y141029D01*
X209431Y141685D01*
X208774Y142124D01*
X208000Y142278D01*
D02*
G37*
G36*
X270937Y141369D02*
X270163Y141215D01*
X269506Y140777D01*
X269068Y140120D01*
X268914Y139346D01*
X269068Y138572D01*
X269506Y137916D01*
X270163Y137477D01*
X270937Y137323D01*
X271711Y137477D01*
X272368Y137916D01*
X272806Y138572D01*
X272960Y139346D01*
X272806Y140120D01*
X272368Y140777D01*
X271711Y141215D01*
X270937Y141369D01*
D02*
G37*
G36*
X231000Y140278D02*
X230226Y140124D01*
X229569Y139685D01*
X229131Y139029D01*
X228977Y138255D01*
X229131Y137480D01*
X229569Y136824D01*
X230226Y136386D01*
X231000Y136232D01*
X231774Y136386D01*
X232431Y136824D01*
X232869Y137480D01*
X233023Y138255D01*
X232869Y139029D01*
X232431Y139685D01*
X231774Y140124D01*
X231000Y140278D01*
D02*
G37*
G36*
X395376Y142437D02*
X394309D01*
X393279Y142161D01*
X392355Y141628D01*
X391601Y140873D01*
X391067Y139950D01*
X390791Y138919D01*
Y137853D01*
X391067Y136822D01*
X391601Y135898D01*
X392355Y135144D01*
X393279Y134611D01*
X394309Y134335D01*
X395376D01*
X396406Y134611D01*
X397330Y135144D01*
X398084Y135898D01*
X398618Y136822D01*
X398894Y137853D01*
Y138919D01*
X398618Y139950D01*
X398084Y140873D01*
X397330Y141628D01*
X396406Y142161D01*
X395376Y142437D01*
D02*
G37*
G36*
X375691D02*
X374624D01*
X373594Y142161D01*
X372670Y141628D01*
X371916Y140873D01*
X371382Y139950D01*
X371106Y138919D01*
Y137853D01*
X371382Y136822D01*
X371916Y135898D01*
X372670Y135144D01*
X373594Y134611D01*
X374624Y134335D01*
X375691D01*
X376721Y134611D01*
X377645Y135144D01*
X378399Y135898D01*
X378933Y136822D01*
X379209Y137853D01*
Y138919D01*
X378933Y139950D01*
X378399Y140873D01*
X377645Y141628D01*
X376721Y142161D01*
X375691Y142437D01*
D02*
G37*
G36*
X226500Y132278D02*
X225726Y132124D01*
X225069Y131685D01*
X224631Y131029D01*
X224477Y130255D01*
X224631Y129480D01*
X225069Y128824D01*
X225726Y128385D01*
X226500Y128232D01*
X227274Y128385D01*
X227931Y128824D01*
X228369Y129480D01*
X228523Y130255D01*
X228369Y131029D01*
X227931Y131685D01*
X227274Y132124D01*
X226500Y132278D01*
D02*
G37*
G36*
X278000Y125778D02*
X277226Y125624D01*
X276569Y125185D01*
X276131Y124529D01*
X275977Y123755D01*
X276131Y122980D01*
X276569Y122324D01*
X277226Y121886D01*
X278000Y121731D01*
X278774Y121886D01*
X279431Y122324D01*
X279869Y122980D01*
X280023Y123755D01*
X279869Y124529D01*
X279431Y125185D01*
X278774Y125624D01*
X278000Y125778D01*
D02*
G37*
G36*
X269000D02*
X268226Y125624D01*
X267569Y125185D01*
X267131Y124529D01*
X266977Y123755D01*
X267131Y122980D01*
X267569Y122324D01*
X268226Y121886D01*
X269000Y121731D01*
X269774Y121886D01*
X270431Y122324D01*
X270869Y122980D01*
X271023Y123755D01*
X270869Y124529D01*
X270431Y125185D01*
X269774Y125624D01*
X269000Y125778D01*
D02*
G37*
G36*
X264000D02*
X263226Y125624D01*
X262569Y125185D01*
X262131Y124529D01*
X261977Y123755D01*
X262131Y122980D01*
X262569Y122324D01*
X263226Y121886D01*
X264000Y121731D01*
X264774Y121886D01*
X265431Y122324D01*
X265869Y122980D01*
X266023Y123755D01*
X265869Y124529D01*
X265431Y125185D01*
X264774Y125624D01*
X264000Y125778D01*
D02*
G37*
G36*
X248000Y117778D02*
X247226Y117624D01*
X246569Y117185D01*
X246131Y116529D01*
X245977Y115755D01*
X246131Y114980D01*
X246569Y114324D01*
X247226Y113885D01*
X248000Y113732D01*
X248774Y113885D01*
X249431Y114324D01*
X249869Y114980D01*
X250023Y115755D01*
X249869Y116529D01*
X249431Y117185D01*
X248774Y117624D01*
X248000Y117778D01*
D02*
G37*
G36*
X174136Y116778D02*
X173362Y116624D01*
X172706Y116185D01*
X172267Y115529D01*
X172113Y114755D01*
X172267Y113980D01*
X172706Y113324D01*
X173362Y112885D01*
X174136Y112732D01*
X174910Y112885D01*
X175567Y113324D01*
X176005Y113980D01*
X176159Y114755D01*
X176005Y115529D01*
X175567Y116185D01*
X174910Y116624D01*
X174136Y116778D01*
D02*
G37*
G36*
X402716Y123864D02*
X401517Y123746D01*
X400364Y123396D01*
X399301Y122828D01*
X398370Y122064D01*
X397605Y121132D01*
X397037Y120069D01*
X396687Y118916D01*
X396569Y117717D01*
X396687Y116517D01*
X397037Y115364D01*
X397605Y114301D01*
X398370Y113370D01*
X399301Y112605D01*
X400364Y112037D01*
X401517Y111687D01*
X402716Y111569D01*
X403916Y111687D01*
X405069Y112037D01*
X406132Y112605D01*
X407064Y113370D01*
X407828Y114301D01*
X408396Y115364D01*
X408746Y116517D01*
X408864Y117717D01*
X408746Y118916D01*
X408396Y120069D01*
X407828Y121132D01*
X407064Y122064D01*
X406132Y122828D01*
X405069Y123396D01*
X403916Y123746D01*
X402716Y123864D01*
D02*
G37*
G36*
X367284D02*
X366084Y123746D01*
X364931Y123396D01*
X363868Y122828D01*
X362936Y122064D01*
X362172Y121132D01*
X361604Y120069D01*
X361254Y118916D01*
X361136Y117717D01*
X361254Y116517D01*
X361604Y115364D01*
X362172Y114301D01*
X362936Y113370D01*
X363868Y112605D01*
X364931Y112037D01*
X366084Y111687D01*
X367284Y111569D01*
X368483Y111687D01*
X369636Y112037D01*
X370699Y112605D01*
X371631Y113370D01*
X372395Y114301D01*
X372963Y115364D01*
X373313Y116517D01*
X373431Y117717D01*
X373313Y118916D01*
X372963Y120069D01*
X372395Y121132D01*
X371631Y122064D01*
X370699Y122828D01*
X369636Y123396D01*
X368483Y123746D01*
X367284Y123864D01*
D02*
G37*
G36*
X257000Y114778D02*
X256226Y114624D01*
X255569Y114185D01*
X255131Y113529D01*
X254977Y112755D01*
X255131Y111980D01*
X255569Y111324D01*
X256226Y110886D01*
X257000Y110731D01*
X257774Y110886D01*
X258431Y111324D01*
X258869Y111980D01*
X259023Y112755D01*
X258869Y113529D01*
X258431Y114185D01*
X257774Y114624D01*
X257000Y114778D01*
D02*
G37*
G36*
X423919Y113894D02*
X422853D01*
X421822Y113618D01*
X420898Y113084D01*
X420144Y112330D01*
X419611Y111406D01*
X419335Y110376D01*
Y109309D01*
X419611Y108279D01*
X420144Y107355D01*
X420898Y106601D01*
X421822Y106067D01*
X422853Y105791D01*
X423919D01*
X424950Y106067D01*
X425873Y106601D01*
X426628Y107355D01*
X427161Y108279D01*
X427437Y109309D01*
Y110376D01*
X427161Y111406D01*
X426628Y112330D01*
X425873Y113084D01*
X424950Y113618D01*
X423919Y113894D01*
D02*
G37*
G36*
X227885Y107893D02*
X227111Y107739D01*
X226454Y107300D01*
X226016Y106644D01*
X225862Y105870D01*
X226016Y105096D01*
X226454Y104439D01*
X227111Y104001D01*
X227885Y103847D01*
X228619Y103993D01*
X229101Y103993D01*
X229131Y103980D01*
X229569Y103324D01*
X230226Y102885D01*
X231000Y102732D01*
X231774Y102885D01*
X232431Y103324D01*
X232869Y103980D01*
X233023Y104755D01*
X232869Y105529D01*
X232431Y106185D01*
X231774Y106624D01*
X231000Y106778D01*
X230266Y106632D01*
X229784Y106632D01*
X229754Y106644D01*
X229315Y107300D01*
X228659Y107739D01*
X227885Y107893D01*
D02*
G37*
G36*
X44958Y99820D02*
X44184Y99666D01*
X43528Y99227D01*
X43089Y98571D01*
X42935Y97796D01*
X43089Y97022D01*
X43528Y96366D01*
X44184Y95927D01*
X44958Y95773D01*
X45732Y95927D01*
X46389Y96366D01*
X46827Y97022D01*
X46981Y97796D01*
X46827Y98571D01*
X46389Y99227D01*
X45732Y99666D01*
X44958Y99820D01*
D02*
G37*
G36*
X427437Y94209D02*
X419335D01*
Y86106D01*
X427437D01*
Y94209D01*
D02*
G37*
G36*
X208000Y90778D02*
X207226Y90624D01*
X206569Y90185D01*
X206131Y89529D01*
X205977Y88755D01*
X206131Y87980D01*
X206569Y87324D01*
X207226Y86885D01*
X208000Y86731D01*
X208575Y86846D01*
X208774Y86885D01*
X208971Y86454D01*
X208831Y86360D01*
X208569Y86185D01*
X208131Y85529D01*
X207977Y84755D01*
X208131Y83980D01*
X208569Y83324D01*
X209226Y82885D01*
X210000Y82731D01*
X210774Y82885D01*
X211431Y83324D01*
X211869Y83980D01*
X212023Y84755D01*
X211869Y85529D01*
X211431Y86185D01*
X210774Y86624D01*
X210000Y86778D01*
X209425Y86663D01*
X209226Y86624D01*
X209029Y87055D01*
X209169Y87149D01*
X209431Y87324D01*
X209869Y87980D01*
X210023Y88755D01*
X209869Y89529D01*
X209431Y90185D01*
X208774Y90624D01*
X208000Y90778D01*
D02*
G37*
G36*
X402716Y88431D02*
X401517Y88313D01*
X400364Y87963D01*
X399301Y87395D01*
X398370Y86631D01*
X397605Y85699D01*
X397037Y84636D01*
X396687Y83483D01*
X396569Y82284D01*
X396687Y81084D01*
X397037Y79931D01*
X397605Y78868D01*
X398370Y77936D01*
X399301Y77172D01*
X400364Y76604D01*
X401517Y76254D01*
X402716Y76136D01*
X403916Y76254D01*
X405069Y76604D01*
X406132Y77172D01*
X407064Y77936D01*
X407828Y78868D01*
X408396Y79931D01*
X408746Y81084D01*
X408864Y82284D01*
X408746Y83483D01*
X408396Y84636D01*
X407828Y85699D01*
X407064Y86631D01*
X406132Y87395D01*
X405069Y87963D01*
X403916Y88313D01*
X402716Y88431D01*
D02*
G37*
G36*
X367284D02*
X366084Y88313D01*
X364931Y87963D01*
X363868Y87395D01*
X362936Y86631D01*
X362172Y85699D01*
X361604Y84636D01*
X361254Y83483D01*
X361136Y82284D01*
X361254Y81084D01*
X361604Y79931D01*
X362172Y78868D01*
X362936Y77936D01*
X363868Y77172D01*
X364931Y76604D01*
X366084Y76254D01*
X367284Y76136D01*
X368483Y76254D01*
X369636Y76604D01*
X370699Y77172D01*
X371631Y77936D01*
X372395Y78868D01*
X372963Y79931D01*
X373313Y81084D01*
X373431Y82284D01*
X373313Y83483D01*
X372963Y84636D01*
X372395Y85699D01*
X371631Y86631D01*
X370699Y87395D01*
X369636Y87963D01*
X368483Y88313D01*
X367284Y88431D01*
D02*
G37*
G36*
X434395Y77739D02*
X433605D01*
X432876Y77437D01*
X432318Y76879D01*
X432016Y76149D01*
Y75360D01*
X432318Y74631D01*
X432876Y74072D01*
X433605Y73770D01*
X434395D01*
X435124Y74072D01*
X435682Y74631D01*
X435984Y75360D01*
Y76149D01*
X435682Y76879D01*
X435124Y77437D01*
X434395Y77739D01*
D02*
G37*
G36*
X238958Y75820D02*
X238184Y75666D01*
X237528Y75227D01*
X237089Y74571D01*
X236935Y73796D01*
X237089Y73022D01*
X237528Y72366D01*
X238184Y71927D01*
X238958Y71773D01*
X239732Y71927D01*
X240389Y72366D01*
X240827Y73022D01*
X240981Y73796D01*
X240827Y74571D01*
X240389Y75227D01*
X239732Y75666D01*
X238958Y75820D01*
D02*
G37*
G36*
X218757Y70521D02*
X217982Y70367D01*
X217326Y69928D01*
X216887Y69272D01*
X216734Y68498D01*
X216887Y67724D01*
X217326Y67067D01*
X217982Y66629D01*
X218757Y66475D01*
X219531Y66629D01*
X220187Y67067D01*
X220626Y67724D01*
X220780Y68498D01*
X220626Y69272D01*
X220187Y69928D01*
X219531Y70367D01*
X218757Y70521D01*
D02*
G37*
G36*
X216000Y57778D02*
X215226Y57624D01*
X214569Y57185D01*
X214131Y56529D01*
X213977Y55755D01*
X214131Y54980D01*
X214569Y54324D01*
X215226Y53886D01*
X216000Y53732D01*
X216774Y53886D01*
X217431Y54324D01*
X217869Y54980D01*
X218023Y55755D01*
X217869Y56529D01*
X217431Y57185D01*
X216774Y57624D01*
X216000Y57778D01*
D02*
G37*
G36*
X209000Y40778D02*
X208226Y40624D01*
X207569Y40185D01*
X207131Y39529D01*
X206977Y38755D01*
X207131Y37980D01*
X207569Y37324D01*
X208226Y36885D01*
X209000Y36731D01*
X209774Y36885D01*
X210431Y37324D01*
X210869Y37980D01*
X211023Y38755D01*
X210869Y39529D01*
X210431Y40185D01*
X209774Y40624D01*
X209000Y40778D01*
D02*
G37*
G36*
X222500Y33543D02*
X221725Y33441D01*
X221003Y33142D01*
X220383Y32666D01*
X220250Y32493D01*
X219750D01*
X219617Y32666D01*
X218997Y33142D01*
X218275Y33441D01*
X217500Y33543D01*
X216725Y33441D01*
X216003Y33142D01*
X215383Y32666D01*
X214907Y32046D01*
X214608Y31324D01*
X214506Y30549D01*
X214608Y29774D01*
X214907Y29052D01*
X215383Y28432D01*
X216003Y27956D01*
X216725Y27657D01*
X217500Y27555D01*
X218275Y27657D01*
X218997Y27956D01*
X219617Y28432D01*
X219750Y28605D01*
X220250D01*
X220383Y28432D01*
X220556Y28299D01*
Y27799D01*
X220383Y27666D01*
X219907Y27046D01*
X219608Y26324D01*
X219506Y25549D01*
X219608Y24774D01*
X219907Y24052D01*
X220383Y23432D01*
X221003Y22956D01*
X221725Y22657D01*
X222500Y22555D01*
X223275Y22657D01*
X223997Y22956D01*
X224617Y23432D01*
X224750Y23605D01*
X225250D01*
X225383Y23432D01*
X226003Y22956D01*
X226725Y22657D01*
X227500Y22555D01*
X228275Y22657D01*
X228997Y22956D01*
X229617Y23432D01*
X230093Y24052D01*
X230392Y24774D01*
X230494Y25549D01*
X230392Y26324D01*
X230093Y27046D01*
X230027Y27132D01*
X230248Y27580D01*
X230469D01*
Y33517D01*
X224532D01*
Y33297D01*
X224083Y33076D01*
X223997Y33142D01*
X223275Y33441D01*
X222500Y33543D01*
D02*
G37*
G36*
X236000Y31278D02*
X235226Y31124D01*
X234569Y30685D01*
X234131Y30029D01*
X233977Y29255D01*
X234131Y28480D01*
X234569Y27824D01*
X235226Y27386D01*
X236000Y27231D01*
X236774Y27386D01*
X237431Y27824D01*
X237869Y28480D01*
X238023Y29255D01*
X237869Y30029D01*
X237431Y30685D01*
X236774Y31124D01*
X236000Y31278D01*
D02*
G37*
G36*
X288953Y25707D02*
X281047D01*
Y17802D01*
X288953D01*
Y24328D01*
D01*
Y25707D01*
D02*
G37*
%LPD*%
D45*
X150000Y150000D02*
D03*
Y25000D02*
D03*
X350000D02*
D03*
D46*
X239508Y187921D02*
D03*
X205492D02*
D03*
D47*
X251634Y205284D02*
D03*
X193366D02*
D03*
D48*
X217500Y25549D02*
D03*
Y30549D02*
D03*
X222500Y25549D02*
D03*
Y30549D02*
D03*
X227500Y25549D02*
D03*
D49*
Y30549D02*
D03*
D50*
X305298Y152214D02*
D03*
D51*
X299730Y157782D02*
D03*
X294162Y163349D02*
D03*
X288595Y168917D02*
D03*
X283027Y174485D02*
D03*
X277459Y180052D02*
D03*
D52*
X295000Y21755D02*
D03*
D53*
X285000D02*
D03*
D54*
X423386Y90158D02*
D03*
D55*
Y100000D02*
D03*
Y109843D02*
D03*
X394843Y138386D02*
D03*
X385000D02*
D03*
X375157D02*
D03*
D56*
X354488Y73819D02*
D03*
Y126181D02*
D03*
X415512Y73819D02*
D03*
Y126181D02*
D03*
D57*
X263977Y166500D02*
D03*
X44958Y97796D02*
D03*
Y77797D02*
D03*
X69958Y117797D02*
D03*
X134560Y97796D02*
D03*
X139958Y107797D02*
D03*
Y87796D02*
D03*
X148177Y97796D02*
D03*
X174136Y114755D02*
D03*
X190500Y98755D02*
D03*
X222500Y85169D02*
D03*
X219438Y88231D02*
D03*
X225562D02*
D03*
X222500Y91294D02*
D03*
X208000Y88755D02*
D03*
Y140255D02*
D03*
X208500Y180255D02*
D03*
X209000Y38755D02*
D03*
X210000Y84755D02*
D03*
X212468Y188151D02*
D03*
X216000Y55755D02*
D03*
X216500Y140255D02*
D03*
X218000Y104755D02*
D03*
X218757Y68498D02*
D03*
X218979Y180477D02*
D03*
X221494Y196748D02*
D03*
X222500Y165752D02*
D03*
X223106Y184848D02*
D03*
X224500Y113755D02*
D03*
X225000Y178755D02*
D03*
X226500Y130255D02*
D03*
X227885Y105870D02*
D03*
X229500Y146755D02*
D03*
X230997Y141836D02*
D03*
X231000Y104755D02*
D03*
Y138255D02*
D03*
Y131755D02*
D03*
X231358Y188055D02*
D03*
X232500Y96255D02*
D03*
Y69255D02*
D03*
X235000Y90755D02*
D03*
X236000Y29255D02*
D03*
X238958Y73796D02*
D03*
X239958Y101796D02*
D03*
X244000Y176255D02*
D03*
X248000Y115755D02*
D03*
X251790Y155310D02*
D03*
X252000Y84755D02*
D03*
X252014Y96723D02*
D03*
X257000Y112755D02*
D03*
X261500Y43255D02*
D03*
Y51255D02*
D03*
Y47255D02*
D03*
X264000Y123755D02*
D03*
X265000Y43255D02*
D03*
X266000Y152755D02*
D03*
Y140755D02*
D03*
X267018Y134772D02*
D03*
X269000Y123755D02*
D03*
X270937Y139346D02*
D03*
X278000Y123755D02*
D03*
X279000Y147755D02*
D03*
X282000Y141755D02*
D03*
X288000Y135755D02*
D03*
X296000Y55255D02*
D03*
Y50255D02*
D03*
X305000Y58755D02*
D03*
X309000D02*
D03*
X434000Y75755D02*
D03*
%TF.MD5,db36e8f9cb80dea35f0777a3345c4bc2*%
M02*
